# MagicaVoxel @ Ephtracy

# group
o 

# material
mtllib ButtonBase.mtl
usemtl palette

# normals
vn -1 0 0
vn 1 0 0
vn 0 0 1
vn 0 0 -1
vn 0 -1 0
vn 0 1 0

# texcoords
vt 0.396484 0.5
vt 0.994141 0.5

# verts
v -2 0 -1.7
v -2 0 -1.9
v -2 0 -2
v -2 4 -1.7
v -2 4 -1.9
v -2 4 -2
v 1.8 0.2 -1.7
v 1.8 0.2 -1.9
v 1.8 3.8 -1.7
v 1.8 3.8 -1.9
v -1.8 0.2 -1.7
v -1.8 0.2 -1.9
v -1.8 3.8 -1.7
v -1.8 3.8 -1.9
v 2 0 -1.7
v 2 0 -1.9
v 2 0 -2
v 2 4 -1.7
v 2 4 -1.9
v 2 4 -2
v -2 0 -1.7
v -2 4 -1.7
v -1.8 0.2 -1.7
v -1.8 3.8 -1.7
v 1.8 0.2 -1.7
v 1.8 3.8 -1.7
v 2 0 -1.7
v 2 4 -1.7
v -1.8 0.2 -1.9
v -1.8 3.8 -1.9
v 1.8 0.2 -1.9
v 1.8 3.8 -1.9
v -2 0 -2
v -2 4 -2
v -1.9 0.1 -2
v -1.9 3.9 -2
v -1.8 0.2 -2
v -1.8 3.8 -2
v 1.8 0.2 -2
v 1.8 3.8 -2
v 1.9 0.1 -2
v 1.9 3.9 -2
v 2 0 -2
v 2 4 -2
v -2 0 -1.7
v 2 0 -1.7
v -2 0 -1.9
v 2 0 -1.9
v -2 0 -2
v 2 0 -2
v -1.8 3.8 -1.7
v 1.8 3.8 -1.7
v -1.8 3.8 -1.9
v 1.8 3.8 -1.9
v -1.8 0.2 -1.7
v 1.8 0.2 -1.7
v -1.8 0.2 -1.9
v 1.8 0.2 -1.9
v -2 4 -1.7
v 2 4 -1.7
v -2 4 -1.9
v 2 4 -1.9
v -2 4 -2
v 2 4 -2

# faces
f 4/2/1 2/2/1 1/2/1
f 5/1/1 3/1/1 2/1/1
f 5/2/1 2/2/1 4/2/1
f 6/1/1 3/1/1 5/1/1
f 9/2/1 8/2/1 7/2/1
f 10/2/1 8/2/1 9/2/1
f 11/2/2 12/2/2 13/2/2
f 13/2/2 12/2/2 14/2/2
f 15/2/2 16/2/2 18/2/2
f 16/1/2 17/1/2 19/1/2
f 18/2/2 16/2/2 19/2/2
f 19/1/2 17/1/2 20/1/2
f 23/2/3 22/2/3 21/2/3
f 24/2/3 22/2/3 23/2/3
f 25/2/3 23/2/3 21/2/3
f 26/2/3 22/2/3 24/2/3
f 27/2/3 25/2/3 21/2/3
f 27/2/3 26/2/3 25/2/3
f 28/2/3 22/2/3 26/2/3
f 28/2/3 26/2/3 27/2/3
f 31/1/3 30/1/3 29/1/3
f 32/1/3 30/1/3 31/1/3
f 33/1/4 34/1/4 35/1/4
f 35/1/4 34/1/4 36/1/4
f 35/2/4 36/2/4 37/2/4
f 37/2/4 36/2/4 38/2/4
f 35/2/4 37/2/4 39/2/4
f 37/1/4 38/1/4 39/1/4
f 38/2/4 36/2/4 40/2/4
f 39/1/4 38/1/4 40/1/4
f 33/1/4 35/1/4 41/1/4
f 35/2/4 39/2/4 41/2/4
f 39/2/4 40/2/4 41/2/4
f 40/2/4 36/2/4 42/2/4
f 41/2/4 40/2/4 42/2/4
f 36/1/4 34/1/4 42/1/4
f 33/1/4 41/1/4 43/1/4
f 41/1/4 42/1/4 43/1/4
f 42/1/4 34/1/4 44/1/4
f 43/1/4 42/1/4 44/1/4
f 47/2/5 46/2/5 45/2/5
f 48/2/5 46/2/5 47/2/5
f 49/1/5 48/1/5 47/1/5
f 50/1/5 48/1/5 49/1/5
f 53/2/5 52/2/5 51/2/5
f 54/2/5 52/2/5 53/2/5
f 55/2/6 56/2/6 57/2/6
f 57/2/6 56/2/6 58/2/6
f 59/2/6 60/2/6 61/2/6
f 61/2/6 60/2/6 62/2/6
f 61/1/6 62/1/6 63/1/6
f 63/1/6 62/1/6 64/1/6
