# MagicaVoxel @ Ephtracy

# group
o 

# material
mtllib AscendedChaosBullet.mtl
usemtl palette

# normals
vn -1 0 0
vn 1 0 0
vn 0 0 1
vn 0 0 -1
vn 0 -1 0
vn 0 1 0

# texcoords
vt 0.517578 0.5
vt 0.544922 0.5

# verts
v -0.2 0.3 0.3
v -0.2 0.3 -0.2
v -0.2 0.4 0.4
v -0.2 0.4 0.3
v -0.2 0.4 -0.1
v -0.2 0.4 -0.2
v -0.2 0.5 0.4
v -0.2 0.5 0.3
v -0.2 0.5 -0.1
v -0.2 0.5 -0.2
v -0.2 0.6 0.3
v -0.2 0.6 -0.2
v -0.1 0.3 0.4
v -0.1 0.3 0.3
v -0.1 0.4 0.5
v -0.1 0.4 0.4
v -0.1 0.4 0.3
v -0.1 0.4 -0.1
v -0.1 0.4 -0.2
v -0.1 0.4 -0.4
v -0.1 0.5 0.5
v -0.1 0.5 0.4
v -0.1 0.5 0.3
v -0.1 0.5 -0.1
v -0.1 0.5 -0.2
v -0.1 0.5 -0.4
v -0.1 0.6 0.4
v -0.1 0.6 0.3
v 0 0.3 -0.1
v 0 0.3 -0.2
v 0 0.4 -0.1
v 0 0.4 -0.2
v -0.1 0.3 -0.1
v -0.1 0.3 -0.2
v -0.1 0.4 -0.1
v -0.1 0.4 -0.2
v 0 0.3 0.4
v 0 0.3 0.3
v 0 0.4 0.5
v 0 0.4 0.4
v 0 0.4 0.3
v 0 0.4 -0.1
v 0 0.4 -0.2
v 0 0.4 -0.4
v 0 0.5 0.5
v 0 0.5 0.4
v 0 0.5 0.3
v 0 0.5 -0.1
v 0 0.5 -0.2
v 0 0.5 -0.4
v 0 0.6 0.4
v 0 0.6 0.3
v 0.1 0.3 0.3
v 0.1 0.3 -0.2
v 0.1 0.4 0.4
v 0.1 0.4 0.3
v 0.1 0.4 -0.1
v 0.1 0.4 -0.2
v 0.1 0.5 0.4
v 0.1 0.5 0.3
v 0.1 0.5 -0.1
v 0.1 0.5 -0.2
v 0.1 0.6 0.3
v 0.1 0.6 -0.2
v -0.1 0.4 0.5
v -0.1 0.5 0.5
v 0 0.4 0.5
v 0 0.5 0.5
v -0.2 0.4 0.4
v -0.2 0.5 0.4
v -0.1 0.3 0.4
v -0.1 0.4 0.4
v -0.1 0.5 0.4
v -0.1 0.6 0.4
v 0 0.3 0.4
v 0 0.4 0.4
v 0 0.5 0.4
v 0 0.6 0.4
v 0.1 0.4 0.4
v 0.1 0.5 0.4
v -0.2 0.3 0.3
v -0.2 0.4 0.3
v -0.2 0.5 0.3
v -0.2 0.6 0.3
v -0.1 0.3 0.3
v -0.1 0.4 0.3
v -0.1 0.5 0.3
v -0.1 0.6 0.3
v 0 0.3 0.3
v 0 0.4 0.3
v 0 0.5 0.3
v 0 0.6 0.3
v 0.1 0.3 0.3
v 0.1 0.4 0.3
v 0.1 0.5 0.3
v 0.1 0.6 0.3
v -0.2 0.4 -0.1
v -0.2 0.5 -0.1
v -0.1 0.3 -0.1
v -0.1 0.4 -0.1
v -0.1 0.5 -0.1
v 0 0.3 -0.1
v 0 0.4 -0.1
v 0 0.5 -0.1
v 0.1 0.4 -0.1
v 0.1 0.5 -0.1
v -0.2 0.3 -0.2
v -0.2 0.4 -0.2
v -0.2 0.5 -0.2
v -0.2 0.6 -0.2
v -0.1 0.3 -0.2
v -0.1 0.4 -0.2
v -0.1 0.5 -0.2
v -0.1 0.6 -0.2
v 0 0.3 -0.2
v 0 0.4 -0.2
v 0 0.5 -0.2
v 0 0.6 -0.2
v 0.1 0.3 -0.2
v 0.1 0.4 -0.2
v 0.1 0.5 -0.2
v 0.1 0.6 -0.2
v -0.1 0.4 -0.4
v -0.1 0.5 -0.4
v 0 0.4 -0.4
v 0 0.5 -0.4
v -0.1 0.3 0.4
v 0 0.3 0.4
v -0.2 0.3 0.3
v -0.1 0.3 0.3
v 0 0.3 0.3
v 0.1 0.3 0.3
v -0.1 0.3 -0.1
v 0 0.3 -0.1
v -0.2 0.3 -0.2
v -0.1 0.3 -0.2
v 0 0.3 -0.2
v 0.1 0.3 -0.2
v -0.1 0.4 0.5
v 0 0.4 0.5
v -0.2 0.4 0.4
v -0.1 0.4 0.4
v 0 0.4 0.4
v 0.1 0.4 0.4
v -0.2 0.4 0.3
v -0.1 0.4 0.3
v 0 0.4 0.3
v 0.1 0.4 0.3
v -0.1 0.4 -0.1
v 0 0.4 -0.1
v -0.1 0.4 -0.2
v 0 0.4 -0.2
v -0.1 0.4 -0.4
v 0 0.4 -0.4
v -0.2 0.5 -0.1
v -0.1 0.5 -0.1
v 0 0.5 -0.1
v 0.1 0.5 -0.1
v -0.2 0.5 -0.2
v -0.1 0.5 -0.2
v 0 0.5 -0.2
v 0.1 0.5 -0.2
v -0.2 0.4 -0.1
v -0.1 0.4 -0.1
v 0 0.4 -0.1
v 0.1 0.4 -0.1
v -0.2 0.4 -0.2
v -0.1 0.4 -0.2
v 0 0.4 -0.2
v 0.1 0.4 -0.2
v -0.1 0.5 0.5
v 0 0.5 0.5
v -0.2 0.5 0.4
v -0.1 0.5 0.4
v 0 0.5 0.4
v 0.1 0.5 0.4
v -0.2 0.5 0.3
v -0.1 0.5 0.3
v 0 0.5 0.3
v 0.1 0.5 0.3
v -0.1 0.5 -0.2
v 0 0.5 -0.2
v -0.1 0.5 -0.4
v 0 0.5 -0.4
v -0.1 0.6 0.4
v 0 0.6 0.4
v -0.2 0.6 0.3
v -0.1 0.6 0.3
v 0 0.6 0.3
v 0.1 0.6 0.3
v -0.2 0.6 -0.2
v -0.1 0.6 -0.2
v 0 0.6 -0.2
v 0.1 0.6 -0.2

# faces
f 4/1/1 2/1/1 1/1/1
f 5/1/1 2/1/1 4/1/1
f 6/1/1 2/1/1 5/1/1
f 7/2/1 4/2/1 3/2/1
f 7/2/1 5/2/1 4/2/1
f 8/2/1 5/2/1 7/2/1
f 9/2/1 5/2/1 8/2/1
f 11/1/1 10/1/1 9/1/1
f 11/1/1 9/1/1 8/1/1
f 12/1/1 10/1/1 11/1/1
f 16/2/1 14/2/1 13/2/1
f 17/2/1 14/2/1 16/2/1
f 21/2/1 16/2/1 15/2/1
f 22/2/1 16/2/1 21/2/1
f 24/2/1 20/2/1 19/2/1
f 24/2/1 19/2/1 18/2/1
f 25/2/1 20/2/1 24/2/1
f 26/2/1 20/2/1 25/2/1
f 27/2/1 23/2/1 22/2/1
f 28/2/1 23/2/1 27/2/1
f 31/1/1 30/1/1 29/1/1
f 32/1/1 30/1/1 31/1/1
f 33/1/2 34/1/2 35/1/2
f 35/1/2 34/1/2 36/1/2
f 37/2/2 38/2/2 40/2/2
f 40/2/2 38/2/2 41/2/2
f 39/2/2 40/2/2 45/2/2
f 45/2/2 40/2/2 46/2/2
f 43/2/2 44/2/2 48/2/2
f 42/2/2 43/2/2 48/2/2
f 48/2/2 44/2/2 49/2/2
f 49/2/2 44/2/2 50/2/2
f 46/2/2 47/2/2 51/2/2
f 51/2/2 47/2/2 52/2/2
f 53/1/2 54/1/2 56/1/2
f 56/1/2 54/1/2 57/1/2
f 57/1/2 54/1/2 58/1/2
f 55/2/2 56/2/2 59/2/2
f 56/2/2 57/2/2 59/2/2
f 59/2/2 57/2/2 60/2/2
f 60/2/2 57/2/2 61/2/2
f 61/1/2 62/1/2 63/1/2
f 60/1/2 61/1/2 63/1/2
f 63/1/2 62/1/2 64/1/2
f 67/2/3 66/2/3 65/2/3
f 68/2/3 66/2/3 67/2/3
f 72/2/3 70/2/3 69/2/3
f 73/2/3 70/2/3 72/2/3
f 75/2/3 72/2/3 71/2/3
f 76/2/3 72/2/3 75/2/3
f 77/2/3 74/2/3 73/2/3
f 78/2/3 74/2/3 77/2/3
f 79/2/3 77/2/3 76/2/3
f 80/2/3 77/2/3 79/2/3
f 85/1/3 82/1/3 81/1/3
f 86/1/3 82/1/3 85/1/3
f 87/1/3 84/1/3 83/1/3
f 88/1/3 84/1/3 87/1/3
f 93/1/3 90/1/3 89/1/3
f 94/1/3 90/1/3 93/1/3
f 95/1/3 92/1/3 91/1/3
f 96/1/3 92/1/3 95/1/3
f 97/2/4 98/2/4 100/2/4
f 100/2/4 98/2/4 101/2/4
f 99/2/4 100/2/4 102/2/4
f 102/2/4 100/2/4 103/2/4
f 103/2/4 104/2/4 105/2/4
f 105/2/4 104/2/4 106/2/4
f 107/1/4 108/1/4 111/1/4
f 111/1/4 108/1/4 112/1/4
f 109/1/4 110/1/4 113/1/4
f 113/1/4 110/1/4 114/1/4
f 113/2/4 114/2/4 117/2/4
f 117/2/4 114/2/4 118/2/4
f 115/1/4 116/1/4 119/1/4
f 119/1/4 116/1/4 120/1/4
f 117/1/4 118/1/4 121/1/4
f 121/1/4 118/1/4 122/1/4
f 123/2/4 124/2/4 125/2/4
f 125/2/4 124/2/4 126/2/4
f 130/2/5 128/2/5 127/2/5
f 131/2/5 128/2/5 130/2/5
f 133/1/5 130/1/5 129/1/5
f 133/2/5 131/2/5 130/2/5
f 134/1/5 132/1/5 131/1/5
f 134/2/5 131/2/5 133/2/5
f 135/1/5 133/1/5 129/1/5
f 136/1/5 133/1/5 135/1/5
f 137/1/5 132/1/5 134/1/5
f 138/1/5 132/1/5 137/1/5
f 142/2/5 140/2/5 139/2/5
f 143/2/5 140/2/5 142/2/5
f 145/2/5 142/2/5 141/2/5
f 146/2/5 142/2/5 145/2/5
f 147/2/5 144/2/5 143/2/5
f 148/2/5 144/2/5 147/2/5
f 151/2/5 150/2/5 149/2/5
f 152/2/5 150/2/5 151/2/5
f 153/2/5 152/2/5 151/2/5
f 154/2/5 152/2/5 153/2/5
f 159/1/5 156/1/5 155/1/5
f 160/1/5 156/1/5 159/1/5
f 161/1/5 158/1/5 157/1/5
f 162/1/5 158/1/5 161/1/5
f 163/1/6 164/1/6 167/1/6
f 167/1/6 164/1/6 168/1/6
f 165/1/6 166/1/6 169/1/6
f 169/1/6 166/1/6 170/1/6
f 171/2/6 172/2/6 174/2/6
f 174/2/6 172/2/6 175/2/6
f 173/2/6 174/2/6 177/2/6
f 177/2/6 174/2/6 178/2/6
f 175/2/6 176/2/6 179/2/6
f 179/2/6 176/2/6 180/2/6
f 181/2/6 182/2/6 183/2/6
f 183/2/6 182/2/6 184/2/6
f 185/2/6 186/2/6 188/2/6
f 188/2/6 186/2/6 189/2/6
f 187/1/6 188/1/6 191/1/6
f 188/2/6 189/2/6 192/2/6
f 191/1/6 188/1/6 192/1/6
f 189/1/6 190/1/6 193/1/6
f 192/2/6 189/2/6 193/2/6
f 193/1/6 190/1/6 194/1/6
